<svg xmlns="http://www.w3.org/2000/svg" viewBox="0 0 600 450" role="img" aria-labelledby="title desc">
<title id="title">Morgan's desk, in paper and colour</title><desc id="desc">A hand-drawn editorial portrait with warm rust, cream, and garden-green shapes.</desc>
<defs><linearGradient id="bg" x2="1" y2="1"><stop stop-color="#d4ddc8"/><stop offset="1" stop-color="#a8b49b"/></linearGradient><linearGradient id="shirt" x2="0" y2="1"><stop stop-color="#dc8055"/><stop offset="1" stop-color="#a84c3b"/></linearGradient></defs>
<rect width="600" height="450" fill="url(#bg)"/><path d="M0 334c98-54 152-51 242-18 83 30 201 40 358-25v159H0Z" fill="#738775"/><circle cx="449" cy="92" r="58" fill="#edba75" opacity=".86"/><path d="M69 319c13-72 42-114 78-147 9 34 3 57-12 79 26-13 51-20 77-16-11 21-34 41-68 59 25-8 50-9 75 0-39 12-61 34-74 66H92Z" fill="#657c6b"/><path d="M0 392c144-38 257-34 393-13 87 13 148 9 207-15v86H0Z" fill="#40594c"/>
<!-- shoulders --> <path d="M129 450c11-112 52-165 129-170h40c86 5 126 64 143 170Z" fill="url(#shirt)"/><path d="M204 291c17 37 43 59 76 59 31 0 56-21 72-59v-42H204Z" fill="#bd7658"/>
<!-- neck and face --> <path d="M221 227c4 40 25 68 60 68 36 0 61-29 65-71l4-45-134 3Z" fill="#ce926d"/><ellipse cx="282" cy="170" rx="76" ry="91" fill="#e1ad84"/>
<!-- hair --> <path d="M209 177c-14-71 15-126 79-132 52-5 94 27 100 83 4 29-2 58-11 81l-14-4-10-45c-21 1-43-7-61-24-16 24-40 40-72 45l-3 29-10 3c-7-11-9-23-8-36Z" fill="#42372f"/><path d="M209 140c15-51 48-80 93-80 42 0 69 18 83 51-23-12-46-11-68-2-21 9-41 11-62 6-14 12-29 21-46 25Z" fill="#514239"/>
<!-- ears --> <ellipse cx="207" cy="185" rx="11" ry="18" fill="#dfa981"/><ellipse cx="357" cy="185" rx="11" ry="18" fill="#dfa981"/>
<!-- face details --> <path d="M241 175c7-5 15-5 22 0M302 175c7-5 15-5 22 0" fill="none" stroke="#4a3830" stroke-width="3" stroke-linecap="round"/><circle cx="254" cy="187" r="2.7" fill="#302924"/><circle cx="314" cy="187" r="2.7" fill="#302924"/><path d="M277 196c-1 12-6 20-2 24 4 3 10 3 14 1M264 231c10 9 25 9 37 0" fill="none" stroke="#9d5b4b" stroke-width="3" stroke-linecap="round"/>
<!-- glasses --> <rect x="231" y="169" width="45" height="34" rx="10" fill="none" stroke="#40362f" stroke-width="2.5"/><rect x="292" y="169" width="45" height="34" rx="10" fill="none" stroke="#40362f" stroke-width="2.5"/><path d="M276 181h16" fill="none" stroke="#40362f" stroke-width="2.5"/>
<!-- collar and pocket --> <path d="m238 293 40 40-21 14-40-42M327 293l-40 40 21 14 41-43" fill="#f0d7b9"/><path d="M354 370h39v42h-39z" fill="#8e4b3b"/><path d="M367 383h13" stroke="#efd2ad" stroke-width="3" stroke-linecap="round"/>
<path d="M35 42h56M35 53h34" stroke="#fff4d8" stroke-width="2" opacity=".72"/><circle cx="536" cy="370" r="3" fill="#f3e3c1"/><circle cx="518" cy="388" r="2" fill="#f3e3c1"/><path d="M492 71c11-10 24-12 37-7" fill="none" stroke="#fff0d0" stroke-width="2" opacity=".65"/>
</svg>