<svg xmlns="http://www.w3.org/2000/svg" viewBox="0 0 800 470" role="img" aria-labelledby="title">
<title id="title">Still House photographer portfolio</title><defs><linearGradient id="photo1" x2=".9" y2="1"><stop stop-color="#dec995"/><stop offset=".55" stop-color="#ac7658"/><stop offset="1" stop-color="#554844"/></linearGradient><linearGradient id="photo2" x2="0" y2="1"><stop stop-color="#80a2a2"/><stop offset=".6" stop-color="#d8d1bf"/><stop offset="1" stop-color="#777a69"/></linearGradient><linearGradient id="photo3" x2="1" y2="1"><stop stop-color="#c78464"/><stop offset="1" stop-color="#e4c6a2"/></linearGradient></defs>
<rect width="800" height="470" fill="#f4efe5"/><rect width="800" height="43" fill="#f8f4eb"/><path d="M0 43h800" stroke="#d8d0c2"/><text x="35" y="27" fill="#332d27" font-family="Georgia,serif" font-size="17" letter-spacing="-1">STILL HOUSE</text><text x="603" y="26" fill="#78736a" font-family="Arial,sans-serif" font-size="8" letter-spacing="1">WORK  /  ABOUT  /  CONTACT</text>
<text x="36" y="92" fill="#9b6f57" font-family="Arial,sans-serif" font-size="8" letter-spacing="1.5">NINA CLARKE · PHOTOGRAPHER</text><text x="35" y="144" fill="#2a2824" font-family="Georgia,serif" font-size="43" letter-spacing="-2">Looking a little</text><text x="35" y="190" fill="#2a2824" font-family="Georgia,serif" font-size="43" font-style="italic" letter-spacing="-2">closer.</text><text x="39" y="222" fill="#77746d" font-family="Arial,sans-serif" font-size="9">Photographs about the everyday things</text><text x="39" y="237" fill="#77746d" font-family="Arial,sans-serif" font-size="9">we almost miss.</text><path d="M39 262h109" stroke="#9d6b4f"/><text x="39" y="280" fill="#9d6b4f" font-family="Arial,sans-serif" font-size="8" letter-spacing="1">SELECTED STORIES  ↓</text>
<rect x="363" y="65" width="190" height="257" fill="url(#photo1)"/><circle cx="463" cy="144" r="47" fill="#e7c890" opacity=".82"/><path d="M363 251c45-57 78-51 109-12 24-40 47-53 81-34v117H363Z" fill="#425049"/><path d="M363 278c53-36 103-31 190-59v103H363Z" fill="#363b36"/><path d="M363 306c64-23 124-12 190-25v41H363Z" fill="#d2a07a"/><text x="363" y="339" fill="#77746d" font-family="Arial,sans-serif" font-size="7" letter-spacing="1">01 / QUIET PLACES</text>
<rect x="570" y="65" width="195" height="154" fill="url(#photo2)"/><path d="M570 166c45-38 80-37 107-10 34-39 54-41 88-21v84H570Z" fill="#556b67"/><path d="M570 184c44-24 96-14 195-35v70H570Z" fill="#adad93"/><circle cx="704" cy="101" r="19" fill="#f1e6c9"/><text x="570" y="236" fill="#77746d" font-family="Arial,sans-serif" font-size="7" letter-spacing="1">02 / THE LONG WAY HOME</text>
<rect x="570" y="254" width="195" height="115" fill="url(#photo3)"/><rect x="590" y="274" width="53" height="74" fill="#e8dfcf" opacity=".72"/><rect x="653" y="274" width="91" height="42" fill="#7c5046" opacity=".8"/><path d="M653 321h91v28h-91z" fill="#b35c43"/><path d="M682 321v28M711 321v28" stroke="#e4c196" stroke-width="2"/><text x="570" y="385" fill="#77746d" font-family="Arial,sans-serif" font-size="7" letter-spacing="1">03 / ORDINARY DAYS</text>
<path d="M35 418h730" stroke="#d8d0c2"/><text x="36" y="440" fill="#807a70" font-family="Arial,sans-serif" font-size="8">TORONTO · AVAILABLE FOR EDITORIAL & COMMISSIONED WORK</text><text x="764" y="440" text-anchor="end" fill="#807a70" font-family="Arial,sans-serif" font-size="8">2025</text>
</svg>